g Road_Sea
v 0 -2 -0.1482596
v 0 -1.590171 -0.1482596
v 0 -1.590171 0.1482596
v 0 -2 0.1482596
v 0 -0.6544906 -0.05254847
v 0 -0.4098294 -0.05254847
v 2 -0.4098294 -0.05254847
v 2 -0.6544906 -0.05254847
v 0 -1 -0.05254847
v 2 -1 -0.05254847
v 0 -1.345509 -0.05254847
v 0 -1 -0.05254847
v 2 -1 -0.05254847
v 2 -1.345509 -0.05254847
v 0 -1.590171 -0.05254847
v 2 -1.590171 -0.05254847
v 2 -1.590171 -0.1482596
v 2 -2 -0.1482596
v 2 -2 0.1482596
v 2 -1.590171 0.1482596
v 2 -1.295085 -0.1482596
v 2 -1.590171 -0.05254847
v 2 -1.345509 -0.05254847
v 2 -1 -0.1482596
v 2 -1 -0.05254847
v 2 -0.7049147 -0.1482596
v 2 -0.6544906 -0.05254847
v 2 -0.4098294 -0.1482596
v 2 -0.4098294 -0.05254847
v 2 0 -0.1482596
v 2 -0.4098294 0.1482596
v 2 0 0.1482596
v 0 -2 -0.1482596
v 0 -2 0.1482596
v 2 -2 0.1482596
v 2 -2 -0.1482596
v 0 -1.590171 0.1482596
v 0 -1.590171 -0.05254847
v 2 -1.590171 -0.05254847
v 2 -1.590171 0.1482596
v 2 0 -0.1482596
v 2 0 0.1482596
v 0 0 0.1482596
v 0 0 -0.1482596
v 0 -1.590171 0.1482596
v 2 -1.590171 0.1482596
v 2 -2 0.1482596
v 0 -2 0.1482596
v 0 -2 -0.1482596
v 2 -2 -0.1482596
v 2 -1.590171 -0.1482596
v 0 -1.590171 -0.1482596
v 2 -1.295085 -0.1482596
v 0 -1.295085 -0.1482596
v 2 -1 -0.1482596
v 0 -1 -0.1482596
v 2 -0.7049147 -0.1482596
v 0 -0.7049147 -0.1482596
v 2 -0.4098294 -0.1482596
v 0 -0.4098294 -0.1482596
v 0 0 -0.1482596
v 2 0 -0.1482596
v 0 -0.4098294 -0.1482596
v 0 0 -0.1482596
v 0 0 0.1482596
v 0 -0.4098294 0.1482596
v 2 0 0.1482596
v 2 -0.4098294 0.1482596
v 0 -0.4098294 0.1482596
v 0 0 0.1482596
v 2 -0.4098294 0.1482596
v 2 -0.4098294 -0.05254847
v 0 -0.4098294 -0.05254847
v 0 -0.4098294 0.1482596
vt 0.4736452 0.1201758
vt 0.4736452 0.1201758
vt 0.4736452 0.2035593
vt 0.4736452 0.2035593
vt 0.1114269 0.8927592
vt 0.1114269 0.8548976
vt 0.07336216 0.8548976
vt 0.07336216 0.8927592
vt 0.1114269 0.9308075
vt 0.07336216 0.9308075
vt 0.07353596 0.8927592
vt 0.07353596 0.9308075
vt 0.1116007 0.9308075
vt 0.1116007 0.8927592
vt 0.07353596 0.8548976
vt 0.1116007 0.8548976
vt 0.4723288 0.1201758
vt 0.4723288 0.1201758
vt 0.4723288 0.2035593
vt 0.4723288 0.2035593
vt 0.4723288 0.1201758
vt 0.4723288 0.1201758
vt 0.4723288 0.1201758
vt 0.4723288 0.1201758
vt 0.4723288 0.1201758
vt 0.4723288 0.1201758
vt 0.4723288 0.1201758
vt 0.4723288 0.1201758
vt 0.4723288 0.1201758
vt 0.4723288 0.1201758
vt 0.4723288 0.2035593
vt 0.4723288 0.2035593
vt 0.4736452 0.1201758
vt 0.4736452 0.2035593
vt 0.4723288 0.2035593
vt 0.4723288 0.1201758
vt 0.4887173 0.1201758
vt 0.4887173 0.03157403
vt 0.457518 0.03157403
vt 0.457518 0.1201758
vt 0.4723288 0.1201758
vt 0.4723288 0.2035593
vt 0.4736452 0.2035593
vt 0.4736452 0.1201758
vt 0.4887173 0.1201758
vt 0.457518 0.1201758
vt 0.457518 0.2035593
vt 0.4887173 0.2035593
vt 0.4736452 0.1201758
vt 0.4723288 0.1201758
vt 0.4723288 0.1201758
vt 0.4736452 0.1201758
vt 0.4723288 0.1201758
vt 0.4736452 0.1201758
vt 0.4723288 0.1201758
vt 0.4736452 0.1201758
vt 0.4723288 0.1201758
vt 0.4736452 0.1201758
vt 0.4723288 0.1201758
vt 0.4736452 0.1201758
vt 0.4736452 0.1201758
vt 0.4723288 0.1201758
vt 0.4736452 0.1201758
vt 0.4736452 0.1201758
vt 0.4736452 0.2035593
vt 0.4736452 0.2035593
vt 0.4886379 0.2035593
vt 0.4886379 0.1201758
vt 0.4574385 0.1201758
vt 0.4574385 0.2035593
vt 0.4886379 0.1201758
vt 0.4886379 0.03157403
vt 0.4574385 0.03157403
vt 0.4574385 0.1201758
vn -1 0 0
vn -1 0 0
vn -1 0 0
vn -1 0 0
vn 0 0 1
vn 0 0 1
vn 0 0 1
vn 0 0 1
vn 0 0 1
vn 0 0 1
vn 0 0 1
vn 0 0 1
vn 0 0 1
vn 0 0 1
vn 0 0 1
vn 0 0 1
vn 1 0 0
vn 1 0 0
vn 1 0 0
vn 1 0 0
vn 1 0 0
vn 1 0 0
vn 1 0 0
vn 1 0 0
vn 1 0 0
vn 1 0 0
vn 1 0 0
vn 1 0 0
vn 1 0 0
vn 1 0 0
vn 1 0 0
vn 1 0 0
vn 0 -1 0
vn 0 -1 0
vn 0 -1 0
vn 0 -1 0
vn 0 1 0
vn 0 1 0
vn 0 1 0
vn 0 1 0
vn 0 1 0
vn 0 1 0
vn 0 1 0
vn 0 1 0
vn 0 0 1
vn 0 0 1
vn 0 0 1
vn 0 0 1
vn 0 0 -1
vn 0 0 -1
vn 0 0 -1
vn 0 0 -1
vn 0 0 -1
vn 0 0 -1
vn 0 0 -1
vn 0 0 -1
vn 0 0 -1
vn 0 0 -1
vn 0 0 -1
vn 0 0 -1
vn 0 0 -1
vn 0 0 -1
vn -1 0 0
vn -1 0 0
vn -1 0 0
vn -1 0 0
vn 0 0 1
vn 0 0 1
vn 0 0 1
vn 0 0 1
vn 0 -1 0
vn 0 -1 0
vn 0 -1 0
vn 0 -1 0
g Road_Sea_0
f 3/3/3 2/2/2 1/1/1
f 4/4/4 3/3/3 1/1/1
f 7/7/7 6/6/6 5/5/5
f 8/8/8 7/7/7 5/5/5
f 8/8/8 5/5/5 9/9/9
f 10/10/10 8/8/8 9/9/9
f 13/13/13 12/12/12 11/11/11
f 14/14/14 13/13/13 11/11/11
f 14/14/14 11/11/11 15/15/15
f 16/16/16 14/14/14 15/15/15
f 19/19/19 18/18/18 17/17/17
f 20/20/20 19/19/19 17/17/17
f 22/22/22 17/17/17 21/21/21
f 23/23/23 22/22/22 21/21/21
f 23/23/23 21/21/21 24/24/24
f 25/25/25 23/23/23 24/24/24
f 25/25/25 24/24/24 26/26/26
f 27/27/27 25/25/25 26/26/26
f 27/27/27 26/26/26 28/28/28
f 29/29/29 27/27/27 28/28/28
f 31/31/31 28/28/28 30/30/30
f 32/32/32 31/31/31 30/30/30
f 35/35/35 34/34/34 33/33/33
f 36/36/36 35/35/35 33/33/33
f 39/39/39 38/38/38 37/37/37
f 40/40/40 39/39/39 37/37/37
f 43/43/43 42/42/42 41/41/41
f 44/44/44 43/43/43 41/41/41
f 47/47/47 46/46/46 45/45/45
f 48/48/48 47/47/47 45/45/45
f 51/51/51 50/50/50 49/49/49
f 52/52/52 51/51/51 49/49/49
f 53/53/53 51/51/51 52/52/52
f 54/54/54 53/53/53 52/52/52
f 55/55/55 53/53/53 54/54/54
f 56/56/56 55/55/55 54/54/54
f 57/57/57 55/55/55 56/56/56
f 58/58/58 57/57/57 56/56/56
f 59/59/59 57/57/57 58/58/58
f 60/60/60 59/59/59 58/58/58
f 59/59/59 60/60/60 61/61/61
f 62/62/62 59/59/59 61/61/61
f 65/65/65 64/64/64 63/63/63
f 66/66/66 65/65/65 63/63/63
f 69/69/69 68/68/68 67/67/67
f 70/70/70 69/69/69 67/67/67
f 73/73/73 72/72/72 71/71/71
f 74/74/74 73/73/73 71/71/71
